<?xml version="1.0" encoding="utf-8"?>
<!-- Generator: Adobe Illustrator 21.1.0, SVG Export Plug-In . SVG Version: 6.00 Build 0)  -->
<svg version="1.1" id="Слой_1" xmlns="http://www.w3.org/2000/svg" xmlns:xlink="http://www.w3.org/1999/xlink" x="0px" y="0px"
	 viewBox="0 0 9 14" style="enable-background:new 0 0 9 14;" xml:space="preserve">
<style type="text/css">
	.st0{fill:#FFFFFF;}
	.st1{opacity:0.3;}
	.st2{fill:none;}
</style>
<g>
	<path id="path-1" class="st0" d="M4.5,10.7c0.4,0,0.6-0.2,0.9-0.5l5.4-5.7c0.3-0.3,0.3-0.9,0-1.2c-0.3-0.3-0.8-0.3-1.2,0L4.5,8.8
		l-5.2-5.5c-0.3-0.3-0.8-0.3-1.2,0c-0.3,0.3-0.3,0.9,0,1.2c0,0,3.6,3.8,5.4,5.7C3.9,10.6,4.1,10.7,4.5,10.7z"/>
</g>
<title>Icons / Arrow Right / M Copy@2x</title>
<desc>Created with Sketch.</desc>
<g id="Final">
	<g id="v1-3-1-home-dashboard-footer" transform="translate(-1283.000000, -608.000000)">
		<rect width="1366" height="829"/>
		<g id="favorites" transform="translate(40.000000, 595.000000)" class="st1">
			
				<g id="Icons-_x2F_-Arrow-Right-_x2F_-M-Copy" transform="translate(1247.500000, 20.000000) scale(-1, 1) translate(-1247.500000, -20.000000) translate(1240.000000, 12.000000)">
				<g id="Direct-_x2F_-Icons-_x2F_-Arrow-Right-_x2F_-M">
					<rect id="box" y="16" class="st2" width="15" height="-16"/>
					
						<g id="icon_arrow-right_m" transform="translate(7.500000, 7.863474) scale(-1, 1) rotate(-270.000000) translate(-7.500000, -7.863474) ">
						<path id="path-1_1_" d="M11.4,7.9c0-0.4-0.2-0.6-0.5-0.9L5.1,1.5c-0.3-0.3-0.9-0.3-1.2,0c-0.3,0.3-0.3,0.8,0,1.2l5.5,5.2
							L3.9,13c-0.3,0.3-0.3,0.8,0,1.2c0.3,0.3,0.9,0.3,1.2,0c0,0,3.8-3.6,5.7-5.4C11.2,8.5,11.4,8.2,11.4,7.9z"/>
					</g>
				</g>
			</g>
		</g>
	</g>
</g>
</svg>
